<svg width="372" height="60" viewBox="0 0 372 60" fill="none" xmlns="http://www.w3.org/2000/svg">
<path d="M27.744 23.864C27.744 25.656 27.312 27.336 26.448 28.904C25.616 30.472 24.288 31.736 22.464 32.696C20.672 33.656 18.4 34.136 15.648 34.136H10.032V47H3.312V13.496H15.648C18.24 13.496 20.448 13.944 22.272 14.84C24.096 15.736 25.456 16.968 26.352 18.536C27.28 20.104 27.744 21.88 27.744 23.864ZM15.36 28.712C17.216 28.712 18.592 28.296 19.488 27.464C20.384 26.6 20.832 25.4 20.832 23.864C20.832 20.6 19.008 18.968 15.36 18.968H10.032V28.712H15.36ZM30.7871 33.608C30.7871 30.92 31.3151 28.536 32.3711 26.456C33.4591 24.376 34.9151 22.776 36.7391 21.656C38.5951 20.536 40.6591 19.976 42.9311 19.976C44.9151 19.976 46.6431 20.376 48.1151 21.176C49.6191 21.976 50.8191 22.984 51.7151 24.2V20.408H58.4831V47H51.7151V43.112C50.8511 44.36 49.6511 45.4 48.1151 46.232C46.6111 47.032 44.8671 47.432 42.8831 47.432C40.6431 47.432 38.5951 46.856 36.7391 45.704C34.9151 44.552 33.4591 42.936 32.3711 40.856C31.3151 38.744 30.7871 36.328 30.7871 33.608ZM51.7151 33.704C51.7151 32.072 51.3951 30.68 50.7551 29.528C50.1151 28.344 49.2511 27.448 48.1631 26.84C47.0751 26.2 45.9071 25.88 44.6591 25.88C43.4111 25.88 42.2591 26.184 41.2031 26.792C40.1471 27.4 39.2831 28.296 38.6111 29.48C37.9711 30.632 37.6511 32.008 37.6511 33.608C37.6511 35.208 37.9711 36.616 38.6111 37.832C39.2831 39.016 40.1471 39.928 41.2031 40.568C42.2911 41.208 43.4431 41.528 44.6591 41.528C45.9071 41.528 47.0751 41.224 48.1631 40.616C49.2511 39.976 50.1151 39.08 50.7551 37.928C51.3951 36.744 51.7151 35.336 51.7151 33.704ZM90.1504 20.408V47H83.3824V43.64C82.5184 44.792 81.3824 45.704 79.9744 46.376C78.5984 47.016 77.0944 47.336 75.4624 47.336C73.3824 47.336 71.5424 46.904 69.9424 46.04C68.3424 45.144 67.0784 43.848 66.1504 42.152C65.2544 40.424 64.8064 38.376 64.8064 36.008V20.408H71.5264V35.048C71.5264 37.16 72.0544 38.792 73.1104 39.944C74.1664 41.064 75.6064 41.624 77.4304 41.624C79.2864 41.624 80.7424 41.064 81.7984 39.944C82.8544 38.792 83.3824 37.16 83.3824 35.048V20.408H90.1504ZM103.501 11.48V47H96.7808V11.48H103.501ZM121.948 47.432C119.388 47.432 117.084 46.872 115.036 45.752C112.988 44.6 111.372 42.984 110.188 40.904C109.036 38.824 108.46 36.424 108.46 33.704C108.46 30.984 109.052 28.584 110.236 26.504C111.452 24.424 113.1 22.824 115.18 21.704C117.26 20.552 119.58 19.976 122.14 19.976C124.7 19.976 127.02 20.552 129.1 21.704C131.18 22.824 132.812 24.424 133.996 26.504C135.212 28.584 135.82 30.984 135.82 33.704C135.82 36.424 135.196 38.824 133.948 40.904C132.732 42.984 131.068 44.6 128.956 45.752C126.876 46.872 124.54 47.432 121.948 47.432ZM121.948 41.576C123.164 41.576 124.3 41.288 125.356 40.712C126.444 40.104 127.308 39.208 127.948 38.024C128.588 36.84 128.908 35.4 128.908 33.704C128.908 31.176 128.236 29.24 126.892 27.896C125.58 26.52 123.964 25.832 122.044 25.832C120.124 25.832 118.508 26.52 117.196 27.896C115.916 29.24 115.276 31.176 115.276 33.704C115.276 36.232 115.9 38.184 117.148 39.56C118.428 40.904 120.028 41.576 121.948 41.576ZM179.979 13.496V47H173.259V32.744H158.907V47H152.187V13.496H158.907V27.272H173.259V13.496H179.979ZM211.313 33.128C211.313 34.088 211.249 34.952 211.121 35.72H191.681C191.841 37.64 192.513 39.144 193.697 40.232C194.881 41.32 196.337 41.864 198.065 41.864C200.561 41.864 202.337 40.792 203.393 38.648H210.641C209.873 41.208 208.401 43.32 206.225 44.984C204.049 46.616 201.377 47.432 198.209 47.432C195.649 47.432 193.345 46.872 191.297 45.752C189.281 44.6 187.697 42.984 186.545 40.904C185.425 38.824 184.865 36.424 184.865 33.704C184.865 30.952 185.425 28.536 186.545 26.456C187.665 24.376 189.233 22.776 191.249 21.656C193.265 20.536 195.585 19.976 198.209 19.976C200.737 19.976 202.993 20.52 204.977 21.608C206.993 22.696 208.545 24.248 209.633 26.264C210.753 28.248 211.313 30.536 211.313 33.128ZM204.353 31.208C204.321 29.48 203.697 28.104 202.481 27.08C201.265 26.024 199.777 25.496 198.017 25.496C196.353 25.496 194.945 26.008 193.793 27.032C192.673 28.024 191.985 29.416 191.729 31.208H204.353ZM230.954 20.024C234.122 20.024 236.682 21.032 238.634 23.048C240.586 25.032 241.562 27.816 241.562 31.4V47H234.842V32.312C234.842 30.2 234.314 28.584 233.258 27.464C232.202 26.312 230.762 25.736 228.938 25.736C227.082 25.736 225.61 26.312 224.522 27.464C223.466 28.584 222.938 30.2 222.938 32.312V47H216.218V20.408H222.938V23.72C223.834 22.568 224.97 21.672 226.346 21.032C227.754 20.36 229.29 20.024 230.954 20.024ZM254.673 24.536C255.537 23.128 256.657 22.024 258.033 21.224C259.441 20.424 261.041 20.024 262.833 20.024V27.08H261.057C258.945 27.08 257.345 27.576 256.257 28.568C255.201 29.56 254.673 31.288 254.673 33.752V47H247.953V20.408H254.673V24.536ZM270.767 17.24C269.583 17.24 268.591 16.872 267.791 16.136C267.023 15.368 266.639 14.424 266.639 13.304C266.639 12.184 267.023 11.256 267.791 10.52C268.591 9.752 269.583 9.368 270.767 9.368C271.951 9.368 272.927 9.752 273.695 10.52C274.495 11.256 274.895 12.184 274.895 13.304C274.895 14.424 274.495 15.368 273.695 16.136C272.927 16.872 271.951 17.24 270.767 17.24ZM274.079 20.408V47H267.359V20.408H274.079ZM278.99 33.656C278.99 31 279.534 28.648 280.622 26.6C281.742 24.52 283.246 22.904 285.134 21.752C287.022 20.6 289.102 20.024 291.374 20.024C293.262 20.024 294.926 20.392 296.366 21.128C297.838 21.832 299.022 22.744 299.918 23.864V20.408H306.686V59.672H299.918V43.352C299.022 44.504 297.822 45.464 296.318 46.232C294.814 47 293.118 47.384 291.23 47.384C288.99 47.384 286.926 46.808 285.038 45.656C283.182 44.472 281.71 42.84 280.622 40.76C279.534 38.68 278.99 36.312 278.99 33.656ZM299.918 33.704C299.918 32.072 299.582 30.664 298.91 29.48C298.238 28.296 297.358 27.4 296.27 26.792C295.214 26.184 294.078 25.88 292.862 25.88C291.678 25.88 290.542 26.184 289.454 26.792C288.398 27.4 287.534 28.296 286.862 29.48C286.19 30.632 285.854 32.024 285.854 33.656C285.854 35.288 286.19 36.712 286.862 37.928C287.534 39.112 288.398 40.008 289.454 40.616C290.542 41.224 291.678 41.528 292.862 41.528C294.078 41.528 295.214 41.224 296.27 40.616C297.358 40.008 298.238 39.112 298.91 37.928C299.582 36.744 299.918 35.336 299.918 33.704ZM338.354 20.408V47H331.586V43.64C330.722 44.792 329.586 45.704 328.178 46.376C326.802 47.016 325.298 47.336 323.666 47.336C321.586 47.336 319.746 46.904 318.146 46.04C316.546 45.144 315.282 43.848 314.354 42.152C313.458 40.424 313.01 38.376 313.01 36.008V20.408H319.73V35.048C319.73 37.16 320.258 38.792 321.314 39.944C322.37 41.064 323.81 41.624 325.634 41.624C327.49 41.624 328.946 41.064 330.002 39.944C331.058 38.792 331.586 37.16 331.586 35.048V20.408H338.354ZM369.704 33.128C369.704 34.088 369.64 34.952 369.512 35.72H350.072C350.232 37.64 350.904 39.144 352.088 40.232C353.272 41.32 354.728 41.864 356.456 41.864C358.952 41.864 360.728 40.792 361.784 38.648H369.032C368.264 41.208 366.792 43.32 364.616 44.984C362.44 46.616 359.768 47.432 356.6 47.432C354.04 47.432 351.736 46.872 349.688 45.752C347.672 44.6 346.088 42.984 344.936 40.904C343.816 38.824 343.256 36.424 343.256 33.704C343.256 30.952 343.816 28.536 344.936 26.456C346.056 24.376 347.624 22.776 349.64 21.656C351.656 20.536 353.976 19.976 356.6 19.976C359.128 19.976 361.384 20.52 363.368 21.608C365.384 22.696 366.936 24.248 368.024 26.264C369.144 28.248 369.704 30.536 369.704 33.128ZM362.744 31.208C362.712 29.48 362.088 28.104 360.872 27.08C359.656 26.024 358.168 25.496 356.408 25.496C354.744 25.496 353.336 26.008 352.184 27.032C351.064 28.024 350.376 29.416 350.12 31.208H362.744Z" fill="#000000"/>
</svg>
