<svg width="50" height="50" viewBox="0 0 50 50" fill="none" xmlns="http://www.w3.org/2000/svg">
<g clip-path="url(#clip0_60_246)">
<path d="M12.5 18.7501C14.1576 18.7501 15.7473 19.4085 16.9194 20.5806C18.0915 21.7527 18.75 23.3425 18.75 25.0001C18.75 26.6577 18.0915 28.2474 16.9194 29.4195C15.7473 30.5916 14.1576 31.2501 12.5 31.2501C10.8424 31.2501 9.25268 30.5916 8.08058 29.4195C6.90848 28.2474 6.25 26.6577 6.25 25.0001C6.25 23.3425 6.90848 21.7527 8.08058 20.5806C9.25268 19.4085 10.8424 18.7501 12.5 18.7501ZM20.7031 20.4594C19.7623 18.7571 18.3152 17.3896 16.5625 16.5463C14.8097 15.703 12.8381 15.4258 10.9208 15.753C9.00344 16.0802 7.23537 16.9957 5.86153 18.3726C4.4877 19.7494 3.57612 21.5195 3.25312 23.4376H1.5625C1.1481 23.4376 0.750671 23.6022 0.457646 23.8952C0.16462 24.1882 0 24.5857 0 25.0001C0 25.4145 0.16462 25.8119 0.457646 26.1049C0.750671 26.3979 1.1481 26.5626 1.5625 26.5626H3.25312C3.64092 28.8842 4.88785 30.975 6.7462 32.4197C8.60455 33.8643 10.9383 34.557 13.2839 34.3602C15.6295 34.1634 17.8152 33.0914 19.4068 31.3573C20.9984 29.6232 21.8795 27.3539 21.875 25.0001C21.875 24.1713 22.2042 23.3764 22.7903 22.7904C23.3763 22.2043 24.1712 21.8751 25 21.8751C25.8288 21.8751 26.6237 22.2043 27.2097 22.7904C27.7958 23.3764 28.125 24.1713 28.125 25.0001C28.1205 27.3539 29.0016 29.6232 30.5932 31.3573C32.1848 33.0914 34.3705 34.1634 36.7161 34.3602C39.0617 34.557 41.3955 33.8643 43.2538 32.4197C45.1122 30.975 46.3591 28.8842 46.7469 26.5626H48.4375C48.8519 26.5626 49.2493 26.3979 49.5424 26.1049C49.8354 25.8119 50 25.4145 50 25.0001C50 24.5857 49.8354 24.1882 49.5424 23.8952C49.2493 23.6022 48.8519 23.4376 48.4375 23.4376H46.7469C46.4239 21.5195 45.5123 19.7494 44.1385 18.3726C42.7646 16.9957 40.9966 16.0802 39.0792 15.753C37.1619 15.4258 35.1903 15.703 33.4375 16.5463C31.6848 17.3896 30.2377 18.7571 29.2969 20.4594C28.1358 19.3612 26.5982 18.7495 25 18.7501C23.3375 18.7501 21.825 19.4001 20.7031 20.4594ZM43.75 25.0001C43.75 26.6577 43.0915 28.2474 41.9194 29.4195C40.7473 30.5916 39.1576 31.2501 37.5 31.2501C35.8424 31.2501 34.2527 30.5916 33.0806 29.4195C31.9085 28.2474 31.25 26.6577 31.25 25.0001C31.25 23.3425 31.9085 21.7527 33.0806 20.5806C34.2527 19.4085 35.8424 18.7501 37.5 18.7501C39.1576 18.7501 40.7473 19.4085 41.9194 20.5806C43.0915 21.7527 43.75 23.3425 43.75 25.0001Z" fill="#1F1F1F"/>
</g>
<defs>
<clipPath id="clip0_60_246">
<rect width="50" height="50" fill="white"/>
</clipPath>
</defs>
</svg>
