<svg width="42" height="42" viewBox="0 0 42 42" fill="none" xmlns="http://www.w3.org/2000/svg">
<path d="M12.1133 0.79493C11.8301 0.912117 11.459 1.23438 11.3027 1.51758C11.2148 1.6543 11.1758 3.10938 11.1367 6.40039L11.0879 11.0879L6.38085 11.1367C1.82031 11.1856 1.67382 11.1953 1.41015 11.3906C0.453119 12.0938 0.47265 13.3828 1.43945 13.9785L1.81054 14.2129L6.47851 14.2422L11.1367 14.2715V21V27.7285L6.47851 27.7578C1.96679 27.7871 1.80078 27.7969 1.46874 27.9922C0.482416 28.5684 0.453119 29.8965 1.41015 30.6094C1.67382 30.8047 1.82031 30.8145 6.38085 30.8633L11.0879 30.9121L11.1367 35.6191C11.1855 40.1797 11.1953 40.3262 11.3906 40.5898C12.0937 41.5469 13.3828 41.5273 13.9785 40.5606L14.2129 40.1895L14.2422 35.5313L14.2715 30.8633H21H27.7285L27.7578 35.5215L27.7871 40.1895L28.0215 40.5606C28.6172 41.5273 29.9062 41.5469 30.6094 40.5898C30.8047 40.3262 30.8144 40.1797 30.8633 35.6191L30.9121 30.9121L35.6191 30.8633C40.1797 30.8145 40.3262 30.8047 40.5898 30.6094C41.5469 29.9063 41.5273 28.6172 40.5605 28.0215L40.1894 27.7871L35.5312 27.7578L30.8633 27.7285V21V14.2715L35.5312 14.2422L40.1894 14.2129L40.5605 13.9785C41.5273 13.3828 41.5469 12.0938 40.5898 11.3906C40.3262 11.1953 40.1797 11.1856 35.6191 11.1367L30.9121 11.0879L30.8633 6.38086C30.8144 1.82032 30.8047 1.67383 30.6094 1.41016C30.2871 0.970707 29.9258 0.755867 29.4277 0.716805C28.8516 0.667976 28.2852 0.960941 27.9922 1.46875C27.7969 1.80079 27.7871 1.9668 27.7578 6.46875L27.7285 11.1367H21H14.2715L14.2422 6.46875L14.2129 1.81055L13.9785 1.43946C13.5976 0.814457 12.7676 0.531258 12.1133 0.79493ZM27.7383 21V27.7383H21H14.2617V21V14.2617H21H27.7383V21Z" fill="#1F1F1F"/>
</svg>
