<svg width="48" height="44" viewBox="0 0 48 44" fill="none" xmlns="http://www.w3.org/2000/svg">
<path d="M31.7437 2.14688C31.8041 1.95071 31.8252 1.74459 31.8058 1.54027C31.7865 1.33596 31.7271 1.13745 31.6311 0.956087C31.535 0.774723 31.4042 0.614053 31.246 0.483251C31.0879 0.352449 30.9055 0.254077 30.7094 0.193751C30.5132 0.133425 30.3071 0.112327 30.1028 0.131661C29.8984 0.150995 29.6999 0.210382 29.5186 0.306433C29.3372 0.402484 29.1765 0.533316 29.0457 0.69146C28.9149 0.849605 28.8166 1.03196 28.7562 1.22813L16.2562 41.8531C16.1344 42.2493 16.1749 42.6776 16.3689 43.0439C16.5629 43.4102 16.8944 43.6844 17.2906 43.8063C17.6868 43.9281 18.1151 43.8876 18.4814 43.6936C18.8477 43.4996 19.1219 43.168 19.2437 42.7719L31.7437 2.14688ZM14.1687 9.95625C14.3142 10.1014 14.4297 10.2738 14.5085 10.4636C14.5872 10.6535 14.6278 10.857 14.6278 11.0625C14.6278 11.268 14.5872 11.4715 14.5085 11.6614C14.4297 11.8512 14.3142 12.0236 14.1687 12.1688L4.33436 22L14.1687 31.8313C14.4621 32.1246 14.627 32.5226 14.627 32.9375C14.627 33.3524 14.4621 33.7504 14.1687 34.0438C13.8753 34.3371 13.4774 34.502 13.0625 34.502C12.6476 34.502 12.2496 34.3371 11.9562 34.0438L1.01874 23.1063C0.873225 22.9611 0.757779 22.7887 0.679009 22.5989C0.600239 22.409 0.559692 22.2055 0.559692 22C0.559692 21.7945 0.600239 21.591 0.679009 21.4011C0.757779 21.2113 0.873225 21.0389 1.01874 20.8938L11.9562 9.95625C12.1014 9.81074 12.2738 9.69529 12.4636 9.61652C12.6535 9.53775 12.857 9.49721 13.0625 9.49721C13.268 9.49721 13.4715 9.53775 13.6613 9.61652C13.8512 9.69529 14.0236 9.81074 14.1687 9.95625ZM33.8312 9.95625C33.6857 10.1014 33.5703 10.2738 33.4915 10.4636C33.4127 10.6535 33.3722 10.857 33.3722 11.0625C33.3722 11.268 33.4127 11.4715 33.4915 11.6614C33.5703 11.8512 33.6857 12.0236 33.8312 12.1688L43.6656 22L33.8312 31.8313C33.686 31.9765 33.5707 32.149 33.4921 32.3388C33.4135 32.5286 33.373 32.7321 33.373 32.9375C33.373 33.143 33.4135 33.3464 33.4921 33.5362C33.5707 33.726 33.686 33.8985 33.8312 34.0438C33.9765 34.189 34.149 34.3043 34.3388 34.3829C34.5286 34.4615 34.732 34.502 34.9375 34.502C35.1429 34.502 35.3464 34.4615 35.5362 34.3829C35.726 34.3043 35.8985 34.189 36.0437 34.0438L46.9812 23.1063C47.1267 22.9611 47.2422 22.7887 47.321 22.5989C47.3997 22.409 47.4403 22.2055 47.4403 22C47.4403 21.7945 47.3997 21.591 47.321 21.4011C47.2422 21.2113 47.1267 21.0389 46.9812 20.8938L36.0437 9.95625C35.8986 9.81074 35.7262 9.69529 35.5363 9.61652C35.3465 9.53775 35.143 9.49721 34.9375 9.49721C34.732 9.49721 34.5285 9.53775 34.3386 9.61652C34.1488 9.69529 33.9764 9.81074 33.8312 9.95625Z" fill="#1F1F1F"/>
</svg>
